<svg fill="#46333C" xmlns="http://www.w3.org/2000/svg" data-name="Слой 1" viewBox="0 0 100 100" x="0px" y="0px"><title>crystal-01-01-01-01-01-01-01-01</title><path d="M57.08587,91.66667c-1.41484-.93257-2.83644-1.34211-3.11007-2.14352-1.05577-3.09229-3.37046-5.17179-5.59316-7.2005C42.21583,76.69409,37.22,70.05564,31.778,63.79782c-5.52148-6.34921-11.15911-12.59811-16.79718-18.84463-2.35179-2.60556-4.78953-5.13848-7.28177-7.61005C6.60949,36.26253,6.365,35.30439,7.36747,34.105c0.43706-.52294.83962-1.07525,1.283-1.59262A124.28265,124.28265,0,0,0,20.17125,16.49181a3.271,3.271,0,0,0,.73181-1.12693c0.11369-3.02641,2.078-3.15215,4.44891-3.2245,8.40952-.2569,16.827-0.5,25.216-1.10247C57.3479,10.551,64.09119,9.55549,70.85031,8.78108c1.12924-.12938,2.25542-0.28657,3.38406-0.42212A2.47256,2.47256,0,0,1,76.9563,9.92861c2.82788,5.64856,7.17916,10.19226,11.02549,15.102,1.39848,1.7852,2.858,3.52526,4.19468,5.3553,1.53849,2.10649,1.4126,3.76439-.15644,5.90649-3.28479,4.48475-6.50037,9.02057-9.80926,13.48732-2.08113,2.80944-4.438,5.42489-6.39375,8.315-4.44645,6.57108-8.71928,13.2595-13.07131,19.8946A15.91173,15.91173,0,0,1,61.707,79.33765a16.10048,16.10048,0,0,0-3.77145,8.62218A37.5743,37.5743,0,0,1,57.08587,91.66667Zm6.84471-55.38889c2.69687-8.52462,6.47-16.45953,9.223-25.33846-8.39807.88832-16.14709,1.84535-23.92191,2.49172-7.74716.644-15.58318,0.11994-23.23777,1.4851a2.24917,2.24917,0,0,0-.067.89948c2.92105,4.327,5.84084,8.65549,8.83126,12.93442a3.9815,3.9815,0,0,0,1.694,1.0809c2.81048,1.21958,5.885,2.01585,8.41688,3.65561C50.848,37.35876,57.33994,36.04958,63.93058,36.27778ZM51.14978,82.34585a5.50771,5.50771,0,0,0,.43193-1.43647Q48.361,69.7902,45.1035,58.68158C43.98817,54.866,42.92213,51.03479,41.717,47.2478a5.48839,5.48839,0,0,0-1.68058-2.83153,22.94842,22.94842,0,0,0-9.62114-4.11773c-3.59992-.49721-7.19-1.06693-10.79053-1.55908-2.21036-.30211-4.43262-0.51833-7.37-0.8559,1.176,1.79375,1.86394,3.08642,2.78015,4.18955A76.31918,76.31918,0,0,0,20.91658,48.7c6.61086,6.298,11.99226,13.65946,18.0178,20.46052C42.76368,73.48246,46.77813,77.64041,51.14978,82.34585Zm4.32674,1.4935a12.80958,12.80958,0,0,0,.95577-1.97785Q58.524,73.095,60.55023,64.313c0.50837-2.21178.99086-4.43381,1.36583-6.67117,0.91992-5.489,1.80929-10.98393,2.62839-16.48868,0.29355-1.97265-.14-2.47871-2.09958-2.64088-1.5828-.13087-3.18337-0.03227-4.77451-0.08253q-5.28276-.16674-10.56389-0.38442a2.86247,2.86247,0,0,0-3.21074,2.3854,9.46763,9.46763,0,0,0-.1383,5.617C47.1102,57.02248,50.24428,68.064,53.50632,79.06692,53.94584,80.5492,54.68382,81.943,55.47652,83.83935Zm5.70462-8.6282c3.75792-5.564,7.41189-10.99746,11.09293-16.41269,1.46644-2.15735,2.93347-4.31871,4.50371-6.40014,3.4173-4.53,6.93758-8.98258,10.32878-13.53157,0.74177-.995,1.72192-2.00923,1.68623-3.66914-1.20746.13778-2.2236,0.17711-3.20635,0.37869q-8.00451,1.642-15.99369,3.35789c-2.65545.57172-2.9238,1.22805-3.30473,3.89228-0.832,5.81816-1.89688,11.60323-2.88677,17.39834-0.20931,1.22508-.57648,2.42547-0.74742,3.65449C62.14248,67.55619,61.69219,71.24154,61.18114,75.21115ZM76.02969,13.49246l-0.91524.08945c-2.48027,7.55815-6.11268,14.71129-8.07038,22.53979,3.97244,0.7092,19.85036-2.82543,22.82852-5.02077Q82.9447,22.28848,76.02969,13.49246ZM23.52906,16.585c-2.50422,3.23282-5.13074,5.93966-6.91594,9.1188-1.81531,3.23267-5.20733,5.56513-5.87668,9.752,2.04195,0.2914,3.83042.54592,5.61874,0.80215,1.90989,0.27355,3.81384.60109,5.73079,0.80988,2.33952,0.25482,5.06152,1.22969,6.932.38107,1.90907-.86624,2.99236-3.56125,4.41753-5.47025a3.85453,3.85453,0,0,0,.20671-1.08477Q28.84216,24.10238,23.52906,16.585Zm9.04243,21.42967c2.42242,1.10076,4.60847,2.19185,6.8836,3.04589a2.138,2.138,0,0,0,1.83613-.90015,50.407,50.407,0,0,0,2.05318-4.80105C36.87972,32.2408,36.30384,32.3623,32.57149,38.01464Z"></path></svg>