<svg fill="#F12B86" xmlns="http://www.w3.org/2000/svg" xmlns:xlink="http://www.w3.org/1999/xlink" version="1.1" x="0px" y="0px" viewBox="0 0 100 100" enable-background="new 0 0 100 100" xml:space="preserve"><path d="M84.907,48.746l-9.75-21.042c-0.056-0.12-0.136-0.229-0.234-0.318l-18-16.375c-0.118-0.107-0.259-0.185-0.413-0.227  l-7.417-2c-0.302-0.078-0.625-0.018-0.871,0.174L24.912,26.941l-11,8c-0.178,0.13-0.309,0.314-0.371,0.526l-3.167,10.75  c-0.062,0.21-0.053,0.435,0.025,0.639l7.917,20.75c0.036,0.095,0.086,0.184,0.149,0.264l3.75,4.75  c0.065,0.082,0.143,0.153,0.23,0.212l22.5,15C45.111,87.942,45.304,88,45.5,88c0.07,0,0.141-0.008,0.21-0.022l7.75-1.666  c0.141-0.03,0.274-0.091,0.389-0.177l21.5-16.084c0.094-0.07,0.175-0.157,0.24-0.256l9.25-14.25C84.944,55.383,85,55.193,85,55  v-5.833C85,49.021,84.968,48.878,84.907,48.746z M81.099,57.633L58.955,72.667l0.756-4.159l17.276-15.493l5.767,2.069L81.099,57.633  z M52.826,84.402l-6.46,1.389l0.593-2.075l6.553-9.466h3.978l-4.248,9.842L52.826,84.402z M28.312,67.971l-8.081-1.093l-0.101-0.127  l-0.469-1.229l12.024-11.754l4.168,0.357l-0.342,6.166L28.312,67.971z M25.907,28.69l3.767,2.876l6.57,15.522l-0.335,6.037  l-4.094-0.351l-8.282-15.833l2.195-8.123L25.907,28.69z M56.098,12.964l5.837,19.101l-5.339-1.248l-6.7-13.775l-0.469-6.095  l6.329,1.706L56.098,12.964z M53.42,73.25L36.514,60.264l0.336-6.054l6.112,0.524L58.708,68.44l-0.875,4.81H53.42z M37.237,47.249  l19.136-15.456l5.794,1.354v6.104L43.019,53.735l-6.113-0.523L37.237,47.249z M59.245,67.583L43.96,54.277l18.677-14.128  L76.129,52.44L59.245,67.583z M48.956,17.396C48.956,17.396,48.956,17.396,48.956,17.396l6.67,13.716L36.952,46.194L30.69,31.401  L48.66,16.786L48.956,17.396z M36.055,61.173l16.513,12.684L46.4,82.766L29.228,68.455L36.055,61.173z M77.137,52.006l-13.97-12.727  v-5.514L82.742,48.83L83,49.388v4.722L77.137,52.006z M81.832,46.867L63.099,32.451l-5.552-18.17l15.881,14.447L81.832,46.867z   M48.452,11.308l0.324,4.205c-0.093,0.011-0.183,0.039-0.257,0.1L30.074,30.613l-3.341-2.551L48.452,11.308z M15.363,36.358  l9.076-6.601l-1.88,6.956l-9.604,7.821L15.363,36.358z M12.455,46.231l10.386-8.457l8.044,15.378L19.272,64.503l-6.884-18.044  L12.455,46.231z M23.687,71.256l-2.565-3.249l7.168,0.969l17.64,14.7l-0.578,2.023L23.687,71.256z M74.008,68.556L54.851,82.888  l3.801-8.806l21.043-14.286L74.008,68.556z"></path></svg>