<svg fill="#AEF12B" xmlns="http://www.w3.org/2000/svg" data-name="Слой 1" viewBox="0 0 100 100" x="0px" y="0px"><title>crystal-01-01-01-01-01-01-01-01-01-01-01-01-01-01-01-01-01-01</title><g><path d="M46.81771,68.12916c0-3.22025-.24076-6.46244.05047-9.65613,0.59108-6.48242.3239-13.04094,1.80167-19.45263,0.47932-2.0795.38581-4.28448,0.74183-6.40049,0.43464-2.58309,1.07217-5.13177,1.6098-7.69787a7.67114,7.67114,0,0,0,.272-1.7851,1.961,1.961,0,0,1,.97665-1.83519c2.53468-1.77175,5.05689-3.56306,7.542-5.40353q5.83254-4.31952,11.60622-8.71831c1.328-1.00779,2.47053-2.3541,3.932-3.06306,1.249-.60588,2.83309-0.521,4.26894-0.74164,0.53767,0.89832,1.48851,1.7717,1.54463,2.69915,0.31657,5.23257,2.70381,9.98932,3.31044,15.15438,0.18575,1.58211.51914,3.31932,2.04448,4.44653a1.81951,1.81951,0,0,1,.40532,1.45522,7.33653,7.33653,0,0,0,.90887,4.27179,4.28254,4.28254,0,0,1-.366,4.84951c-1.18622,1.66759-1.53337,3.95731-2.794,5.53971a31.43893,31.43893,0,0,0-3.20083,5.07c-2.87683,5.47127-5.64844,11.00033-8.637,16.4097-1.88389,3.41-4.02744,6.6714-5.28262,10.40043a11.78618,11.78618,0,0,1-1.00429,1.9759c-0.80817,1.42763-1.50951,2.81133-.78991,4.56324a8.02764,8.02764,0,0,1,.04547,2.62655c1.48137,0,2.94308.09365,4.3863-.02913a2.296,2.296,0,0,1,2.4478,1.33081c0.97736,1.71031,2.11321,3.35531,1.01269,5.62748a25.41936,25.41936,0,0,0,2.6203,1.213,2.92066,2.92066,0,0,1,2.026,2.04285c0.24052,0.76438.63679,1.47908,0.95158,2.221a0.88019,0.88019,0,0,1-.51167,1.38155,4.00494,4.00494,0,0,1-2.02586-2.95746A1.89816,1.89816,0,0,0,75.35,92.11371c-1.00471-.36737-1.96852-0.8465-3.17226-1.37506a15.00982,15.00982,0,0,1,.30583-1.84635,3.898,3.898,0,0,0-.31573-2.92777c-0.53412-1.08067-1.11106-1.9034-2.59173-1.67306a16.22955,16.22955,0,0,1-3.21133-.12418c-1.49911-.07344-2.02212-0.62806-2.12726-2.09784a5.79846,5.79846,0,0,0-.45392-2.65531c-0.62843-.94533-1.73113-0.08679-2.62221-0.1281-2.30811-.107-4.60274-0.40588-6.182-2.38986a7.00926,7.00926,0,0,1-1.16774-2.0583,3.0857,3.0857,0,0,0-2.00027-2.10938c-1.32591-.43529-2.688-0.76027-4.08635-1.147-0.8993,1.32549-1.74883,2.57749-2.6963,3.97379a1.51606,1.51606,0,0,0-1.9084.59486c-0.84724,1.28683-2.01983,1.40009-3.36875.866-1.7252-.6831-3.46353-0.29654-5.161.09743a2.46021,2.46021,0,0,0-2.13216,2.54523,2.66019,2.66019,0,0,1-2.2674,2.88888,2.8984,2.8984,0,0,0-2.193,1.89719A3.51787,3.51787,0,0,1,25.08451,86.645c-2.46446.37385-4.33537,2.00405-6.62845,2.8414,0.34216,1.53641,2.16465,2.04313,1.87072,3.6082a1.62605,1.62605,0,0,1-.50952.473c-1.10564-1.35639-2.18188-2.67665-3.42585-4.20274A9.00188,9.00188,0,0,1,18.04915,88.3c2.521-.91031,4.69163-2.64224,7.40273-3.12a1.51347,1.51347,0,0,0,1.03385-.83361c0.40569-1.49967,1.64845-2.06451,2.80582-2.7203,1.76414-.99967,1.98641-1.4323.703-2.86213-4.01632-4.47468-6.86865-9.79137-10.6191-14.45755-1.68174-2.09234-3.11446-4.38406-4.68051-6.57075a7.66788,7.66788,0,0,0-1.65037-2.0238c-1.764-1.18039-1.572-2.78757-1.24056-4.465,0.62469-3.16175,1.312-6.31127,1.91871-9.47634,0.44253-2.30863.77367-4.6384,1.19911-6.95053,0.32824-1.78356.66965-3.56833,1.10839-5.32682,0.43959-1.76213,1.09491-2.15662,2.76357-1.52264a60.4603,60.4603,0,0,1,6.663,2.87347c2.73225,1.43473,5.33411,3.11693,7.99834,4.682,1.21563,0.71414,2.43771,1.41839,3.67268,2.09831A1.88968,1.88968,0,0,1,38.338,39.8098a8.83311,8.83311,0,0,0,.84972,3.85638,127.629,127.629,0,0,1,4.94564,16.78528c0.4789,2.0196,1.03893,4.021,1.61134,6.0166a13.36456,13.36456,0,0,0,.779,1.756ZM81.64176,25.15243q-0.61008-.40021-1.22026-0.80032c0.71947-.62222,1.439-1.24449,2.27889-1.97086a15.517,15.517,0,0,0-3.53584,1.35807c-2.62413,1.86-5.13822,3.88108-7.63358,5.91478-1.68762,1.37544-2.12544,3.44989-2.96927,5.55264,0.90373,0.058,1.56255.14346,2.22,0.13333a32.43188,32.43188,0,0,1,4.025-.10406,5.70609,5.70609,0,0,0,4.24541-1.41489c1.55546-1.16321,3.19116-2.221,4.81343-3.29219,1.12721-.74439,1.23645-1.13538.49262-2.8055q-2.1105.99762-4.22123,1.99551l-0.18655-.31713c1.43954-.88352,2.87907-1.76708,4.36245-2.67753-0.20635-.99584-0.679-1.44542-1.68566-0.898a11.39328,11.39328,0,0,0-1.37138.84724c-2.04616,1.5239-4.059,3.09317-6.12323,4.59191-1.00672.731-2.09948,1.34337-3.29163,2.09686-0.15928-.55658-0.2303-0.80481-0.30135-1.053a8.937,8.937,0,0,0,1.61064-.72661c2.2477-1.59519,4.46926-3.22763,6.68037-4.87342,0.63688-.474,1.20779-1.03674,1.809-1.55882q0.82752-.37178,1.655-0.7436-0.15834-.23858-0.31653-0.47717Q82.3099,24.541,81.64176,25.15243Zm-6.48471-7.29708c1.97352-1.42675,3.947-2.85354,6.15759-4.45171-2.36032-.76643-3.16069,1.49836-5.02977,1.97427a4.09769,4.09769,0,0,1,.61046-1.24421c0.88739-.69766,1.81965-1.34411,2.77287-1.95a0.91454,0.91454,0,0,0,.50565-1.31409,0.80234,0.80234,0,0,0-1.33557-.32147,6.28991,6.28991,0,0,0-1.88879,1.97324c-0.74052,1.719-1.19958,3.55928-1.77324,5.35054-0.46241.70957-1.05149,1.38585-.66666,2.41092,2.21834-1.35723,4.36534-2.66684,6.50758-3.98421,0.539-.33142.72623-0.75789,0.14939-1.48678a17.00193,17.00193,0,0,0-1.65569.91839c-1.09075.76414-2.13454,1.595-3.21385,2.376C75.85523,18.42589,75.35584,18.75553,75.15706,17.85535ZM19.4498,36.43423q-0.87024,6.16237-1.74322,12.32432a3.78642,3.78642,0,0,0,.02861,2.46918c1.55994-3.01628,1.32278-6.47808,2.484-9.61028,0.44416,3.1061-.67124,6.13448-0.50971,9.2544a1.58542,1.58542,0,0,0,.81489-0.83819c0.22978-.8365.32717-1.70872,0.54365-2.54966a11.67524,11.67524,0,0,0,.82059-3.01829,13.12257,13.12257,0,0,0-.97852-3.23738c-0.50088-1.58991-.989-3.18383-1.48253-4.77608a16.28365,16.28365,0,0,0-2.10391-5.54783c-1.39911,6.85954-2.63388,13.70373-3.84914,20.55137a4.69316,4.69316,0,0,0,.06629,1.107c1.4759-1.92908,1.34738-4.22772,1.73963-6.38177,0.42073-2.31054.71111-4.646,1.01792-6.97584,0.29071-2.20667.52894-4.4202,0.814-6.832a1.40037,1.40037,0,0,1,.68552,1.73655c-0.59337,4.25853-1.2591,8.508-1.77987,12.77521-0.20373,1.66913-.8556,3.33206-0.29682,5.08668a3.19464,3.19464,0,0,0,.64939-1.36017q1.10581-6.6553,2.14523-13.32147C18.61152,36.66947,18.66381,36.20654,19.4498,36.43423Zm14.92491,7.69894c-1.09537.40154-1.194,1.0739-.65527,2.0456q2.68858,4.84921,5.302,9.73983c0.40439,0.75546.68464,1.5774,1.022,2.36876a6.13183,6.13183,0,0,1-.93492-0.99575c-1.91134-3.236-3.79107-6.49054-5.68345-9.73773-0.31139-.53436-0.63814-1.05975-1.02754-1.70471-0.88571,1.39295-.95074,1.42581-0.46428,2.38762,1.06,2.096,2.13,4.19167,3.30848,6.22211,3.16923,5.46,6.40334,10.88231,9.59039,16.332a6.18982,6.18982,0,0,1,.41909,1.32268,8.36031,8.36031,0,0,1-3.17884-3.88271c-0.53394-1.072-.879-2.24584-1.47572-3.27739-2.42165-4.18659-4.89886-8.34124-7.37719-12.49477-0.60415-1.01246-1.29052-1.97586-1.97735-3.02006-0.74538.85952-.15957,1.40765,0.14444,1.93795,2.87324,5.01165,5.778,10.00528,8.64647,15.01974a16.10725,16.10725,0,0,1,.82325,2.00629,11.9,11.9,0,0,1-1.28-1.48632c-1.47483-2.399-2.884-4.83831-4.34686-7.24474-1.45069-2.38631-2.93724-4.75082-4.40805-7.1249L30.46255,52.73a9.28693,9.28693,0,0,0,.557,1.37693q4.49984,7.50326,9.04432,14.97973a13.51776,13.51776,0,0,0,1.26339,1.53281L41.517,70.4558q-0.34342-1.04117-.68674-2.08239c0.88025,1.23711,1.72866,2.49887,2.6576,3.69817A7.143,7.143,0,0,0,44.784,73.12344a9.71745,9.71745,0,0,0,1.07829-1.55485,1.81046,1.81046,0,0,0-.10387-1.15452c-0.82021-2.50513-1.26195-5.16231-3.02025-7.2933a6.30441,6.30441,0,0,1-.6999-1.62511c0.32194,0.12087.64384,0.24174,1.16858,0.43879-0.83954-3.56376-1.62058-6.89087-2.41115-10.21574-0.077-.3239-0.21363-0.63361-0.32161-0.95023-0.96778-2.838-2.77725-5.2-4.36483-7.686a2.60824,2.60824,0,0,0-.71853-0.48819c-0.38258.57628-.71144,1.07147-1.04024,1.56666ZM56.62085,76.7351c1.7218,1.162,3.493,1.90256,5.5863.858a1.98,1.98,0,0,1,.96713-0.24813,1.51634,1.51634,0,0,0,1.5724-1.00228c0.30733-.59617.71153-1.14309,1.01092-1.74271,1.64836-3.30157,3.23076-6.63695,4.92907-9.91233,1.2358-2.38337,2.66684-4.665,3.92137-7.03924,2.57179-4.86754,5.01749-9.80286,7.65417-14.6344a8.49624,8.49624,0,0,0,1.0507-5.72383c-0.784-.10719-1.55784-0.24855-2.338-0.31055-0.93744-.07451-1.87992-0.09636-2.82072-0.11471-2.81213-.05481-5.62472-0.12838-8.43661-0.11116a1.68445,1.68445,0,0,0-1.29249.69164,32.30015,32.30015,0,0,0-1.79047,4.46179c-1.36717,4.49569-2.52221,9.05879-3.98654,13.52128-1.67254,5.09676-2.693,10.40122-4.91417,15.32567a11.83752,11.83752,0,0,0-.62479,2.74061C56.93014,74.47554,56.809,75.4668,56.62085,76.7351Zm10.411-41.83523a9.30487,9.30487,0,0,0,.78095-1.24383c1.28127-3.23664,2.6188-6.45427,3.78267-9.7333,1.16456-3.28136,2.15419-6.625,3.20984-9.94478,0.4668-1.46816.95233-2.9329,1.34337-4.42179,0.2514-.95709.63856-2.105-0.46652-2.74219-1.0042-.579-1.7429.32908-2.46647,0.8795-3.362,2.55755-6.67061,5.187-10.07335,7.68872-2.268,1.66745-4.67594,3.1435-6.993,4.74606-0.90625.6268-1.97595,1.14211-2.32357,2.41418C58.19709,26.63281,62.53166,30.68887,67.03183,34.89987ZM18.48566,60.43754c2.21993,3.10088,4.23831,5.94391,6.28219,8.76845,2.06222,2.8499,3.8308,5.93877,6.49624,8.32639,1.50219-1.10938,2.866-2.11652,4.27884-3.15989,0.96349,1.83767,2.7709.44892,4.37076,1.10126-0.18856-.48945-0.238-0.6803-0.33016-0.84743-1.88081-3.40965-3.71385-6.84713-5.6673-10.21471-1.65051-2.84532-3.42711-5.61828-5.17887-8.40375-0.57857-.91984-1.33721-1.491-2.49229-0.82353a1.564,1.564,0,0,1-.68781-0.093l0.26167-1.15494a3.36368,3.36368,0,0,0-1.22282-.61554,3.91174,3.91174,0,0,0-1.36979.50934c-0.14579-.5661-0.2535-0.98422-0.35467-1.37693-4.228.14463-6.7384,0.79439-8.54259,2.22548,0.26737,0.36564.5324,0.74276,0.81232,1.10854,2.29458,2.998,2.29542,2.99733,5.625,3.83892C20.439,60.70127,19.5512,60.3783,18.48566,60.43754ZM36.84548,39.317c-5.84134-3.70181-11.24169-7.362-17.92318-9.70141,0.68982,1.88407,1.2732,3.295,1.72348,4.74718Q21.868,38.30495,22.953,42.28915c0.48361,1.77161,1.49206,2.80209,3.40064,2.7991a2.121,2.121,0,0,1,.798.09211c2.61689,1.08987,4.45334-.06877,6.09456-2.00321C34.31426,41.91828,35.496,40.75587,36.84548,39.317Zm-7.024,8.36094c-3.67291-1.63767-5.56394-1.47315-6.55012,2.9175,1.52581,0.79822,3.10036,1.62194,4.95722,2.59336C28.80518,51.194,29.29995,49.48235,29.82147,47.678ZM42.33925,72.49188c-1.19771.23781-1.20224,0.24043-1.65055-.52866-2.29341-3.9343-4.56021-7.88438-6.887-11.79879-1.04766-1.76255-2.21334-3.45494-3.32543-5.17911l-0.39967.24295c1.42726,3.58687,3.91212,6.59428,5.76753,9.94557a102.91237,102.91237,0,0,0,5.92752,10.13936C43.2167,74.0556,43.2167,74.0556,42.33925,72.49188ZM84.234,31.24858c-2.23921.91185-4.37151,2.67235-5.01837,4.20993H83.5434c0.15368-.57152.30139-1.12054,0.48743-1.81236l-1.87007.23842C84.14979,32.18018,84.14979,32.18018,84.234,31.24858ZM82.112,17.26432a13.78881,13.78881,0,0,0-2.673.94388c-1.80709,1.13907-3.56189,2.36909-5.26739,3.65582a4.98793,4.98793,0,0,0-.92955,1.52674l0.39524,0.26615a41.00057,41.00057,0,0,1,3.18155-2.99056,7.18884,7.18884,0,0,1,3.98976-1.87194c0.54239,0.77539,1.01111,1.44542,1.47983,2.11549l0.42624-.19225C82.53905,19.71146,82.36347,18.70525,82.112,17.26432Zm-2.37451,3.46544c-1.54584-.58389-2.28794.50849-3.05578,1.1218-3.21591,2.56862-5.14835,4.0765-4.71305,6.38158C73.85982,24.92134,77.12343,23.31485,79.73752,20.72976Zm6.2398,11.20934a8.3427,8.3427,0,0,0-.52824,4.24882C87.10659,34.21435,87.11855,34.12027,85.97732,31.9391ZM22.1369,45.50011c-0.23333,1.68118-.40135,2.89219-0.56942,4.10316C22.2862,48.44,23.61369,47.38218,22.1369,45.50011Zm15.7069-1.45466c-0.3669-2.07609-.3669-2.07609-1.56353-2.40751C36.81019,42.4539,37.2136,43.07514,37.8438,44.04545ZM78.2562,9.6636c0.42936-.32367.85868-0.64743,1.51307-1.1408C78.56148,8.19932,78.14808,8.5735,78.2562,9.6636Z"></path><path d="M57.85647,88.69313c5.58789,0.38865,8.92,2.64341,8.7988,6.13849A4.5303,4.5303,0,0,1,65.5458,94.024c-1.63721-2.41474-3.734-3.99055-6.79316-3.94854a2.22219,2.22219,0,0,1-2.52082-1.81419c-0.36625-1.53608-1.76274-1.7161-2.98616-1.97021a6.891,6.891,0,0,0-1.9971.11545c-1.75251.17339-2.35611-.61041-1.69976-2.287a4.88552,4.88552,0,0,1,.85112-1.01153c0.3155,0.7478.53674,1.27222,0.74846,1.77408C53.85914,85.31,57.01665,84.85267,57.85647,88.69313Z"></path><path d="M30.99476,88.883c0.58352,0.041.90046,0.08221,1.21746,0.08231,1.3879,0.00051,2.10032-.64337,2.55083-2.06862A13.70363,13.70363,0,0,1,36.089,83.61108,4.07992,4.07992,0,0,1,39.623,82.03923c2.11717-.08492,2.11764-0.07278,2.78295-1.97044,0.46307-1.32082.78534-1.39472,2.90737-.495-1.62525.50322-1.96152,1.89-2.697,2.99537a2.40714,2.40714,0,0,1-1.68487.79738c-3.61049.2112-3.86689,0.33366-4.98887,3.88453a4.26246,4.26246,0,0,1-3.07721,2.897C32.02072,90.40718,31.285,90.23029,30.99476,88.883Z"></path><path d="M29.63342,71.32634c-0.71456.55313-1.16227,0.38-1.48473-.28492-0.426-.8781.19374-1.28734,0.8648-1.94649C29.25751,69.97345,29.44873,70.66159,29.63342,71.32634Z"></path><path d="M22.52906,64.16129a3.87384,3.87384,0,0,1-.49131-0.933,1.523,1.523,0,0,1,.0916-1.0056,0.86366,0.86366,0,0,1,.8175-0.12675,2.98417,2.98417,0,0,1,.51769,1.14458,0.71908,0.71908,0,0,1-.27418.49561A4.275,4.275,0,0,1,22.52906,64.16129Z"></path><path d="M31.19368,63.01344l0.38146,2.15275C30.23762,64.76628,30.23066,64.73813,31.19368,63.01344Z"></path><path d="M27.77339,67.17575a1.40731,1.40731,0,0,1-.56111,2.04056C26.60668,68.28177,26.95593,67.75558,27.77339,67.17575Z"></path><path d="M17.471,56.06422a0.80806,0.80806,0,0,1-1.31876-.21438,0.682,0.682,0,0,1,.264-0.591A0.78046,0.78046,0,0,1,17.471,56.06422Z"></path><path d="M32.64008,73.89828c-0.08585,1.10317-.32091,1.63043-1.25915,1.63968C31.611,74.6712,31.611,74.6712,32.64008,73.89828Z"></path><path d="M22.92654,56.2159l1.09439-.40173a2.86407,2.86407,0,0,1,.18473.65014,7.54887,7.54887,0,0,1-1.05826.4119Z"></path><path d="M28.37306,57.9087a1.98148,1.98148,0,0,1-.67045.52175,1.62034,1.62034,0,0,1-.656-0.30425A2.2314,2.2314,0,0,1,27.6021,57.48,2.04442,2.04442,0,0,1,28.37306,57.9087Z"></path><path d="M26.17867,64.1577q-0.4458.35392-.89141,0.70784a3.63236,3.63236,0,0,1-.36942-0.51391,9.08923,9.08923,0,0,1,.86582-0.70635Q25.98115,63.90151,26.17867,64.1577Z"></path><path d="M24.446,65.30036a2.77644,2.77644,0,0,1,.63959.77689,0.69473,0.69473,0,0,1-.4147.51512,2.32982,2.32982,0,0,1-.7675-0.396Z"></path><path d="M20.92248,53.29686c0.06312,1.01834-.321,1.25606-1.29663.81494C20.18868,53.758,20.55558,53.52744,20.92248,53.29686Z"></path><path d="M19.99209,58.31878a1.62552,1.62552,0,0,1-.45966-0.63679,0.78141,0.78141,0,0,1,.5337-0.47259,0.65451,0.65451,0,0,1,.4626.44164A1.98356,1.98356,0,0,1,19.99209,58.31878Z"></path><path d="M28.96451,60.04665c0.19944,0.13231.34916,0.23156,0.49879,0.3309q-0.21527.26562-.43077,0.53132A1.033,1.033,0,0,1,28.649,60.5374,1.17731,1.17731,0,0,1,28.96451,60.04665Z"></path><path d="M34.925,69.03891a9.91521,9.91521,0,0,1-.0239.992,4.52974,4.52974,0,0,1-.53436.00317V69.02425Z"></path><path d="M26.96518,59.67387a2.49535,2.49535,0,0,1-.47862.43959,1.47128,1.47128,0,0,1-.49379-0.48707,0.66954,0.66954,0,0,1,.3408-0.36074A2.29532,2.29532,0,0,1,26.96518,59.67387Z"></path><path d="M29.82348,63.97894a1.32962,1.32962,0,0,1-.48721.31909,2.11762,2.11762,0,0,1-.49346-0.46284,1.87926,1.87926,0,0,1,.596-0.25826A1.14411,1.14411,0,0,1,29.82348,63.97894Z"></path><path d="M32.08444,68.00763a2.34808,2.34808,0,0,1,.443.749,1.19965,1.19965,0,0,1-.3972.36391,1.0258,1.0258,0,0,1-.30934-0.39771A2.29324,2.29324,0,0,1,32.08444,68.00763Z"></path><path d="M40.02213,58.26323l2.04229,3.26371Z"></path><path d="M80.45157,24.32932c-1.06381.89706-2.14654,1.77282-3.18729,2.69593-1.79126,1.58874-3.55634,3.207-5.33242,4.813a2.98764,2.98764,0,0,1,.31059-0.92213,24.2099,24.2099,0,0,1,7.252-6.28536A4.77413,4.77413,0,0,1,80.45157,24.32932Z"></path><path d="M75.06546,33.93783L77.28893,31.844a4.37569,4.37569,0,0,1-1.90079,2.43715Z"></path><path d="M34.35049,44.16095a2.20792,2.20792,0,0,1,1.034.36807c1.5626,2.32968,3.0695,4.69676,4.57753,7.06258a0.99284,0.99284,0,0,1,.06336.80317c-1.95327-2.7174-4.45209-5.03574-5.6504-8.26173Z"></path></g></svg>