<svg fill="#1822F1" xmlns="http://www.w3.org/2000/svg" data-name="Слой 1" viewBox="0 0 100 100" x="0px" y="0px"><title>crystal-01-01-01-01-01-01-01-01-01-01-01-01-01</title><g><path d="M54.64856,93.93909c-1.1413-.81574-2.31635-1.62918-3.46351-2.48019-4.2026-3.11778-8.39068-6.25528-12.59752-9.36734A3.42788,3.42788,0,0,1,37.08007,79.788c-0.32049-2.11258-.67547-4.21994-0.99156-6.33315-0.317-2.1193-.6238-4.24051-0.90019-6.36542-0.63759-4.90148-1.2513-9.806-1.88008-14.70867-0.48236-3.76115-.98633-7.51962-1.45447-11.28255-0.25393-2.0414-.42066-4.094-0.69444-6.13243a16.36509,16.36509,0,0,0-.59539-2.09361,1.885,1.885,0,0,1-.12564-0.81113,20.53023,20.53023,0,0,1,.56009-2.14427c0.58587-1.84334,1.2-3.67768,1.7986-5.517a0.9337,0.9337,0,0,0,.09235-0.48016c-0.36144-1.24363.46065-2.02884,1.1314-2.82915,1.72068-2.05307,3.51487-4.04458,5.23205-6.10042,1.21507-1.45476,2.34862-2.97749,3.5257-4.46426,1.17225-1.48076,2.3534-2.95454,3.55738-4.46486a5.23463,5.23463,0,0,1,2.21436,1.50931q2.5,2.01246,4.89682,4.15209c1.4722,1.31718,2.85664,2.732,4.313,4.06758,1.63373,1.4981,3.30251,2.958,4.96121,4.42876a10.59767,10.59767,0,0,1,1.20918,1.03911,2.68311,2.68311,0,0,1,.63616,1.26926c0.26972,2.16021.47721,4.32874,0.675,6.49719,0.21648,2.37328.36933,4.75257,0.602,7.12411,0.32573,3.31964.75717,6.62973,1.03559,9.95292,0.24031,2.86849.778,5.71967,0.541,8.62473a13.031,13.031,0,0,0,.2123,2.08445c0.255,3.03614.49323,6.0737,0.75011,9.10967,0.11815,1.39651.26,2.79111,0.4006,4.18559,0.11987,1.18847.23905,2.37732,0.3869,3.56247a16.63448,16.63448,0,0,0,.31893,1.69464,2.10285,2.10285,0,0,1-.63136,2.23691c-1.03467.93661-2.06368,1.88874-3.00538,2.91647-1.3068,1.42621-2.56238,2.90265-3.78227,4.40441-1.84346,2.26949-3.64017,4.57709-5.45027,6.87359A6.4995,6.4995,0,0,1,54.64856,93.93909ZM59.6661,46.042l-0.016-.017a1.63889,1.63889,0,0,0-.03433,1.8325c0.29255,0.0628.56885,0.1221,1.13157,0.24294A1.40177,1.40177,0,0,0,59.736,49.92731c0.2583,1.58581.51681,3.17514,0.67576,4.77291,0.35425,3.56184.61622,7.13292,0.97905,10.69379,0.17548,1.72179.09784,3.53149,1.29784,5.00149a1.26757,1.26757,0,0,1,.123.47146,5.07955,5.07955,0,0,0,2.988,3.92926c0.97769,0.39242,1.95294.73781,3.00409,1.0799-0.15314-1.35626-.30871-2.568-0.424-3.78361-0.43525-4.59034-.88337-9.17973-1.27455-13.7739-0.22358-2.62506-.319-5.26086-0.52214-7.88792q-0.32837-4.24755-.755-8.48729c-0.21133-2.12951-.53595-4.24832-0.72233-6.37958-0.24042-2.74894-.3465-5.50989-0.60435-8.25688-0.12127-1.29212-.46191-2.56364-0.74816-4.08334-1.25871.98006-2.35666,1.8202-3.43728,2.68205-0.61136.48757-1.21227,0.99139-1.78533,1.52293-0.67773.62867-.55815,1.49552-0.61974,2.30568-0.04814.6331,0.47933,0.79293,1.08305,1.05859a1.54245,1.54245,0,0,0-.90871,1.75692c0.13269,1.723.26285,3.44666,0.44114,5.16519a3.22439,3.22439,0,0,0,.39918.93286,5.76136,5.76136,0,0,0-.24355,1.39173c0.128,1.75575.32774,3.5062,0.49532,5.25914A0.64208,0.64208,0,0,0,59.6661,46.042ZM38.43633,31.12537a2.35427,2.35427,0,0,0-.38129-0.1346,15.5208,15.5208,0,0,0-5.90772,2.04154,1.00867,1.00867,0,0,0-.38255.794c0.0428,1.1112.12,2.22521,0.26566,3.32748,0.32379,2.45.72665,4.88969,1.04128,7.34076,0.388,3.02286.70465,6.05482,1.0789,9.07951,0.40976,3.3118.85579,6.61912,1.27418,9.92989,0.165,1.30622.27015,2.62037,0.45136,3.92414,0.50413,3.6279,1.01245,7.25557,1.5705,10.87542a19.14066,19.14066,0,0,0,.753,2.49129c1.09375-.9867,1.98026-1.83837,2.924-2.621a3.74427,3.74427,0,0,0,1.3855-2.25982,7.3932,7.3932,0,0,1,.58673-1.61757,7.45676,7.45676,0,0,0,.72985-5.382c-0.1528-.51117-0.25376-1.03874-0.36161-1.56227-0.35729-1.73389-.77749-3.45865-1.04329-5.2067-0.421-2.76913-.738-5.55409-1.09655-8.33269C41.135,52.346,40.944,50.87956,40.76641,49.41147c-0.26222-2.16719-.4965-4.33787-0.77331-6.50311-0.34464-2.69621-.72287-5.38808-1.08176-8.08246C38.74441,33.57309,38.58915,32.31873,38.43633,31.12537ZM63.58157,22.19c-0.45813-.44554-0.76072-0.78121-1.10519-1.06629-0.72937-.60361-1.52242-1.13558-2.21571-1.7766-3.14165-2.90471-6.239-5.85742-9.39349-8.74794-1.02872-.94261-2.17754-1.75514-3.28337-2.6117a3.61955,3.61955,0,0,0-.7-0.321,2.15821,2.15821,0,0,0-.146.52716c0.07527,3.0448.13846,6.09029,0.27121,9.13272a1.99622,1.99622,0,0,0,.63977,1.11712c0.67384,0.68477,1.61479,1.01256,2.31192,1.7112,0.64666,0.648,1.48706,1.09764,2.19465,1.69123,0.91349,0.76636,1.76072,1.6115,2.672,2.38075,0.81551,0.68846,1.6971,1.29853,2.51429,1.98515a0.81578,0.81578,0,0,0,1.19946-.01614c0.77091-.61845,1.56739-1.20486,2.34153-1.81934C61.74778,23.68951,62.6,22.98632,63.58157,22.19ZM38.52321,29.5393c0.28325-.44451.50637-0.78218,0.71709-1.12742a62.98363,62.98363,0,0,1,5.73006-8.32606,4.583,4.583,0,0,0,1.17689-3.50208c-0.13392-1.8874-.17531-3.78129-0.26245-5.67213-0.041-.88874-0.09635-1.77683-0.151-2.77077-0.6672.792-1.30136,1.52871-1.918,2.27985-1.56547,1.90683-3.12055,3.8222-4.68466,5.7302-1.5116,1.84406-3.05808,3.66054-4.53123,5.53469-0.66468.8456-.58029,1.09707,0.0371,1.97606a9.18835,9.18835,0,0,1,1.16859,1.86363A12.51394,12.51394,0,0,0,38.52321,29.5393ZM38.897,81.35624c5.13569,3.70811,9.88767,7.67908,15.355,11.23783,0.03053-2.6525.02349-4.982,0.1003-7.30872a2.17193,2.17193,0,0,0-1.09249-2.16919,23.022,23.022,0,0,1-4.41786-3.72571,3.83363,3.83363,0,0,0-1.69586-.9,36.0729,36.0729,0,0,0-3.752-.70974,1.2498,1.2498,0,0,0-.87762.30145C41.33929,79.10634,40.19776,80.17151,38.897,81.35624ZM59.76368,55.77778a84.55447,84.55447,0,0,0-16.19141,8.36688c0.11732,0.65707.24337,1.36293,0.37969,2.12654a5.58871,5.58871,0,0,0,.60077-0.208c2.85678-1.45313,5.72619-2.88245,8.5607-4.37795,1.67258-.88245,3.2842-1.87985,4.93386-2.80664a1.6232,1.6232,0,0,1,1.67747-.35792c-4.95712,3.19268-10.29659,5.67035-15.557,8.58081,0.13886,0.58756.30333,1.28351,0.50528,2.13812a12.82348,12.82348,0,0,0,1.50385-.5407c3.61711-1.87324,7.22169-3.77071,10.83551-5.65024,1.084-.56375,2.18556-1.09381,3.38321-1.69126A18.5499,18.5499,0,0,0,59.76368,55.77778ZM57.92932,43.96283l0.0975,0.3213a1.69368,1.69368,0,0,1-.34453.31655c-2.57806,1.28686-5.19692,2.49739-7.73218,3.8632-2.66889,1.43782-5.25877,3.02232-7.9724,4.59446,0.07443,0.52387.15668,1.103,0.26053,1.83385,0.80727-.40669,1.43842-0.6989,2.04526-1.035,2.37972-1.31778,4.7421-2.667,7.12946-3.97062,2.134-1.16524,4.29075-2.28872,6.44155-3.423a0.86267,0.86267,0,0,0,.68242-0.77242,16.19591,16.19591,0,0,0-.55605-3.94522c-1.14868.49369-2.209,0.92353-3.24661,1.40238-1.12121.51744-2.22526,1.07278-3.32911,1.62692-0.62535.31395-1.24143,0.64781-1.851,0.99159-2.40052,1.35383-4.78564,2.73561-7.20309,4.05839a0.98737,0.98737,0,0,0-.65594,1.25676c0.08668,0.30748.18326,0.61219,0.3239,1.07962a18.64652,18.64652,0,0,0,2.20044-.94024c2.13039-1.25141,4.1867-2.6329,6.34556-3.83087,2.12262-1.17783,4.33209-2.19995,6.51385-3.26929A3.20968,3.20968,0,0,1,57.92932,43.96283ZM47.48425,76.31855a1.41421,1.41421,0,0,1,1.19528-1.0347c0.878-.34092,1.76009-0.682,2.60418-1.09693,1.07158-.52673,2.10154-1.13735,3.159-1.69349,2.21657-1.16564,4.4394-2.31933,6.74534-3.52262L60.93041,67.289c-5.17832,1.9532-9.52388,5.04647-14.19641,7.57978a7.35056,7.35056,0,0,0,.56335,1.59657,4.12921,4.12921,0,0,0,1.37317,1.47215,2.20333,2.20333,0,0,0,1.48809-.351,20.36017,20.36017,0,0,0,2.26077-1.26889,52.62817,52.62817,0,0,1,8.58588-4.29312,1.02462,1.02462,0,0,0,.64712-1.17231A6.383,6.383,0,0,0,61.33205,69.68a11.74544,11.74544,0,0,0-1.18333.46377q-4.81116,2.52951-9.61088,5.08071A10.2319,10.2319,0,0,1,47.48425,76.31855ZM58.8966,49.24743a7.21786,7.21786,0,0,0-.99145.32153c-1.65779.82546-3.33437,1.61948-4.94983,2.52213-2.01505,1.12591-3.97657,2.34742-5.962,3.52645-1.24008.73643-2.4737,1.4844-3.72645,2.19866a0.87759,0.87759,0,0,0-.52081,1.10468c0.11234,0.419.17769,0.85055,0.28256,1.36856,0.37689-.16184.64037-0.25782,0.88834-0.38429,1.35818-.69281,2.69275-1.43528,4.07218-2.08231,3.24732-1.52313,6.42813-3.169,9.51035-5.00315A3.97739,3.97739,0,0,0,59.14063,51.664a4.59625,4.59625,0,0,0-.10236-2.05828A1.90373,1.90373,0,0,0,58.8966,49.24743ZM41.32327,47.355a3.01588,3.01588,0,0,0,.6624-0.1471c1.2852-.64946,2.56281-1.31389,3.84091-1.97726,2.66615-1.38381,5.32654-2.77869,7.99869-4.15086,1.13566-.58318,2.28331-1.14639,3.44838-1.66766a0.96159,0.96159,0,0,0,.65982-1.15755c-0.0329-.20269-0.03081-0.41107-0.0444-0.61688-0.09944-1.50554-.364-1.6684-1.71807-1.0472a7.04386,7.04386,0,0,0-1.10691.54851c-1.659,1.1544-3.4182,2.12943-5.18227,3.11381-2.62395,1.46426-5.15026,3.104-7.71255,4.67808C40.93228,45.69083,40.938,45.70018,41.32327,47.355Zm15.451-20.34246a9.75477,9.75477,0,0,0-3.7449,1.69246,8.30748,8.30748,0,0,1-1.49072.86729C47.636,31.06343,44.10493,33.28337,40.41336,35.188a1.05705,1.05705,0,0,0-.63645,1.30491c0.06923,0.30542.15088,0.608,0.24115,0.96873a4.92437,4.92437,0,0,0,.52641-0.19949c1.6707-.89109,3.32774-1.80838,5.00962-2.6777,3.58252-1.85173,7.1823-3.67012,10.76459-5.52219C57.41521,28.49538,57.45961,28.21368,56.7743,27.01253ZM40.31569,40.51574c0.10975,0.502.24386,1.11552,0.42123,1.92671,1.64449-.89667,3.14631-1.64612,4.57892-2.51029,3.59208-2.16685,7.30823-4.09684,11.07419-5.93578,1.20976-.59073,1.28929-0.79711.68563-2.2894-0.67547.27842-1.37491,0.51266-2.02326,0.84623-1.05911.5449-2.07141,1.18023-3.12768,1.73106-1.78481.93083-3.60655,1.79193-5.37955,2.74413C44.52324,38.11425,42.53766,39.26773,40.31569,40.51574ZM43.4644,63.05a7.83649,7.83649,0,0,0,1.20386-.40627c1.26923-.67936,2.51532-1.40172,3.77607-2.09718,2.016-1.11217,4.01488-2.25836,6.06277-3.30883,1.49618-.76744,3.056-1.4119,4.59511-2.09375a0.78794,0.78794,0,0,0,.54911-0.85888c-0.05079-.47418-0.14339-0.94387-0.24607-1.59448-0.51443.236-.88214,0.38078-1.22741,0.567-2.17068,1.17076-4.32322,2.37589-6.50723,3.521-2.47115,1.2957-4.98218,2.51549-7.45,3.8174C42.9572,61.26258,42.96341,61.36517,43.4644,63.05Zm2.16175,8.84049c1.45971-.756,2.80684-1.44143,4.14265-2.14836,2.214-1.17177,4.41674-2.365,6.63231-3.53386,1.12663-.59436,2.25982-1.17875,3.41157-1.722A1.041,1.041,0,0,0,60.4782,63.106c-0.06517-.22638-0.12856-0.45324-0.20052-0.70711-2.8283.77468-5.14891,2.45341-7.69562,3.64767-2.58656,1.21293-5.072,2.64146-7.63585,3.99357C45.18753,70.6968,45.38118,71.22385,45.62615,71.89048ZM58.45457,46.836c-3.375,1.76018-6.67281,3.42564-9.915,5.19314-1.73046.94336-3.34854,2.0906-5.04807,3.09378-1.21717.71844-1.23994,0.67987-.81419,2.25359,1.02973-.54839,2.06085-1.03084,3.02486-1.6226a134.38083,134.38083,0,0,1,12.12658-6.8713C58.97435,48.3336,58.97621,48.33755,58.45457,46.836ZM57.03191,29.42744c-1.56633.76046-3.055,1.44846-4.51161,2.19886-2.00784,1.03439-3.984,2.13023-5.98836,3.17142-1.09089.56667-2.22235,1.055-3.31627,1.61617-0.76255.39113-1.48236,0.86483-2.23951,1.26735-0.92765.49315-.98593,0.62194-0.56192,1.8559a16.65446,16.65446,0,0,0,1.58741-.55889c0.59539-.2753,1.14854-0.64054,1.72862-0.95059q4.1262-2.20557,8.25771-4.40118c1.41419-.75145,2.80507-1.5554,4.25917-2.22037C57.48644,30.83934,57.52712,30.89582,57.03191,29.42744ZM55.887,26.36765c-0.7802-.97846-0.8321-1.04088-1.83018-0.56968-3.08414,1.45607-6.14765,2.9558-9.21589,4.44546a5.92227,5.92227,0,0,0-.61785.40469A20.21439,20.21439,0,0,1,39.432,33.45846c0.0553,0.4856.10339,0.90763,0.16739,1.46941,5.41136-2.81954,10.65474-5.551,15.89634-8.28572A3.56145,3.56145,0,0,0,55.887,26.36765ZM60.7341,66.5222c-0.05856-.56876-0.10966-1.06488-0.17042-1.65476-0.44691.17242-.7211,0.2541-0.97365,0.3794-2.46812,1.22446-4.95478,2.41422-7.391,3.69956-1.85547.97895-3.65648,2.06357-5.45945,3.13844a1.02835,1.02835,0,0,0-.53331,1.54047c0.26908,0.4567.59708,0.47581,1.40411,0.08211,0.037-.01808.07636-0.03184,0.11229-0.05184,1.43851-.801,2.94754-1.49921,4.3001-2.42581A66.98215,66.98215,0,0,1,60.7341,66.5222ZM40.88342,44.89726c0.30042-.15059.44786-0.2133,0.58429-0.29455,3.82275-2.27659,7.6364-4.56854,11.47007-6.82653a18.586,18.586,0,0,1,4.80959-2.37251l-0.19491-1.45956-16.77233,9.075ZM39.48451,32.86964C42.19257,31.86237,44.182,29.83651,46.692,28.704c2.51956-1.13683,4.93629-2.50159,7.50211-3.81989-0.50874-.36853-0.92876-0.67281-1.32553-0.96026-1.59994.79743-3.1393,1.48955-4.60573,2.3118-2.7233,1.527-5.40241,3.13269-8.10343,4.69968C39.30456,31.43128,39.29955,31.42261,39.48451,32.86964Zm18.48055,6.955c-1.92639.871-3.71664,1.60472-5.43694,2.47644-2.42172,1.22718-4.79137,2.55715-7.18407,3.84166-0.21757.11678-.44157,0.22154-0.66151,0.33392-0.87875.44892-1.76985,0.87576-2.63182,1.35494-0.76916.42764-.7645,0.49332-0.28228,1.58862a163.6339,163.6339,0,0,1,16.26044-8.435C58.00692,40.58549,57.98937,40.267,57.96506,39.82468ZM60.84121,72.822a57.58822,57.58822,0,0,0-11.29385,5.91719c0.33366,0.32141.62114,0.5984,0.941,0.90657,0.97694-.44454,1.91154-0.86328,2.84062-1.29384,2.01064-.93186,4.02318-1.86005,6.02195-2.81682a1.49831,1.49831,0,0,0,.6672-0.63313C60.31783,74.28488,60.53081,73.62575,60.84121,72.822Zm-21.256-42.25992c1.3748-.80492,2.75178-1.60618,4.12379-2.41585,1.41534-.83525,2.80469-1.71721,4.24452-2.50746,1.38-.75743,2.81022-1.42343,4.24609-2.14353-0.92041-1.13126-.98793-1.14024-1.984-0.5562C48.48019,23.95666,46.73829,24.96332,45,25.97623c-1.55992.909-3.12668,1.80672-4.6737,2.73721A1.604,1.604,0,0,0,39.58526,30.56207ZM59.51745,76.25639a8.61091,8.61091,0,0,0-1.23957.37531Q55.06165,78.206,51.8683,79.8269a3.97593,3.97593,0,0,0-.6299.49492c1.17995,1.46506,1.17814,1.44769,2.66953.68439a24.01769,24.01769,0,0,1,2.91518-1.33766,5.28608,5.28608,0,0,0,2.58475-2.5284A2.66581,2.66581,0,0,0,59.51745,76.25639ZM40.97325,27.45585a58.14226,58.14226,0,0,0,9.4723-5.49959,0.78505,0.78505,0,0,0-1.21408-.42515c-1.17548.66855-2.38921,1.27212-3.54613,1.97045-1.09032.65813-2.09361,1.46428-3.20044,2.09A3.297,3.297,0,0,0,40.97325,27.45585Zm3.96364,45.38666-0.37041.01476c-0.40664,1.30156-1.38013,2.431-1.21039,3.89043,1.68477,0.71872,2.15552.79394,3.25828,0.51758C46.05218,75.783,45.49455,74.31274,44.93689,72.84251ZM60.5777,76.34264c0.92257-.50708,1.64763-0.87155,2.33392-1.29844a0.68307,0.68307,0,0,0,.38267-0.92376c-0.34765-.66128-0.73235-1.30308-1.22529-2.17157C61.54944,73.51987,60.50673,74.57448,60.5777,76.34264ZM42.80953,24.30994l0.216,0.19642q2.947-1.86145,5.90062-3.72714a0.71114,0.71114,0,0,0-1.18327-.28211c-1.20612.86225-2.44641,1.6775-3.63808,2.55886A13.04161,13.04161,0,0,0,42.80953,24.30994ZM54.89945,83.26006c0.66646-.98781,1.29761-1.92325,1.92871-2.85868a7.37411,7.37411,0,0,0-3.50382,1.67993ZM44.93929,21.53434l0.1685,0.18635,2.64114-1.96353-0.75011-.88088C46.20612,19.89932,45.57271,20.71683,44.93929,21.53434Z"></path><path d="M67.69749,72.31466c-0.206.645-.412,1.29006-0.65828,2.06105-0.58241.22237-.726-0.44469-1.26039-0.69329,0.657-.58761,1.175-1.05078,1.69286-1.51392Z"></path><path d="M62.38569,51.67358c-0.96356.50084-1.268-.35251-1.97947-0.61256l1.0327-1.23948,0.25441,0.04686A1.61715,1.61715,0,0,0,62.38569,51.67358Z"></path><path d="M59.6661,46.042c-0.199-.76613.54562-0.87407,0.8103-1.259a0.533,0.533,0,0,1,.19022-0.00812c0.17319,0.2529.33934,0.51066,0.55788,0.84477-0.573.22317-.91687,0.8345-1.57437,0.40552Z"></path><path d="M65.84909,65.25635c0.03656-.80744.65644-0.98638,1.22192-1.28837C67.2682,65.07946,67.06866,65.28447,65.84909,65.25635Z"></path><path d="M64.19379,34.87c-0.02864.46454-.15383,0.80361-0.71152,0.74181-0.38258-.04237-0.76247-0.10845-1.14828-0.16461C62.51386,34.87591,62.51386,34.87591,64.19379,34.87Z"></path><path d="M61.23135,59.40115c0.52026-.43905.95037-0.802,1.43385-1.21a0.65941,0.65941,0,0,1,.0581,1.01742A1.10524,1.10524,0,0,1,61.23135,59.40115Z"></path><path d="M60.12014,40.70567a0.62872,0.62872,0,0,1,.16968,1.19162,0.43554,0.43554,0,0,1-.4234.05436c-0.45533-.342-0.13532-0.7118.01511-1.06443A0.80795,0.80795,0,0,1,60.12014,40.70567Z"></path><path d="M65.28974,58.64058c0.6008,0.06743.53228,0.53489,0.52227,0.92868a0.50666,0.50666,0,0,1-.71944.50345,1.72172,1.72172,0,0,1,.216-1.44669Z"></path><path d="M62.42757,62.0659a1.09493,1.09493,0,0,1-.19388-0.40735,4.51243,4.51243,0,0,1,.25087-0.83917,0.71322,0.71322,0,0,1,.41013.11652,0.63127,0.63127,0,0,1-.06448.95655A1.473,1.473,0,0,1,62.42757,62.0659Z"></path><path d="M64.38972,46.91843c0.44-.382.71684-0.62234,1.06165-0.92167C65.60091,47.02177,65.472,47.15448,64.38972,46.91843Z"></path><path d="M64.55649,55.60092a7.70294,7.70294,0,0,1-.19494.999,0.43879,0.43879,0,0,1-.40017.13412,0.419,0.419,0,0,1-.21388-0.35082,7.873,7.873,0,0,1,.46629-0.89816Z"></path><path d="M63.70147,40.50392c0.316,0.78112.24274,1.13918-.19914,1.33231a0.68673,0.68673,0,0,1-.36051-0.17162C63.27964,41.34117,63.44,41.02734,63.70147,40.50392Z"></path><path d="M60.69986,43.23847l1.00878-.868C61.77956,43.34209,61.701,43.42594,60.69986,43.23847Z"></path><path d="M62.83209,47.32933c0.24629,0.41142.35909,0.74467-.03442,0.98507A0.5411,0.5411,0,0,1,62.284,48.198C62.04583,47.662,62.4742,47.55159,62.83209,47.32933Z"></path><path d="M64.09746,50.87842c-0.247.65107-.54779,0.7078-0.86139,0.36953a0.42818,0.42818,0,0,1,.01671-0.30885C63.53216,50.90213,63.8153,50.89392,64.09746,50.87842Z"></path><path d="M64.43633,61.94386a1.0109,1.0109,0,0,1-.45419,1.128C63.70547,62.35833,63.70547,62.35833,64.43633,61.94386Z"></path><path d="M64.43532,69.82909l0.78553,0.22437c-0.37462.75348-.41116,0.75506-1.03722,0.07707Z"></path><path d="M64.43532,69.82909l-0.2517.30145c-0.3201-.00223-0.63027-0.09006-0.44323-0.47415a1.18475,1.18475,0,0,1,.85258-0.52722Z"></path><path d="M62.08327,38.72395c-0.1249.4513-.18887,0.71134-0.28522,0.95881A0.655,0.655,0,0,1,61.3991,39.566C61.19756,39.20328,61.38355,38.97787,62.08327,38.72395Z"></path><path d="M64.36661,27.56956a2.31058,2.31058,0,0,1-.55463.51306,0.53031,0.53031,0,0,1-.36075-0.33131,0.55843,0.55843,0,0,1,.32971-0.39857A1.39768,1.39768,0,0,1,64.36661,27.56956Z"></path><path d="M62.8187,28.30482a0.5087,0.5087,0,0,1-.5439.70176,0.42168,0.42168,0,0,1-.25264-0.31841A0.49684,0.49684,0,0,1,62.8187,28.30482Z"></path><path d="M66.28831,60.82885c-0.07392.75217-.3122,0.90989-0.679,0.80833a0.81381,0.81381,0,0,1-.20175-0.37789Z"></path><path d="M64.9354,48.45753a0.51,0.51,0,0,1-.278.84128,0.4249,0.4249,0,0,1-.34544-0.22981C64.23962,48.62045,64.47163,48.42494,64.9354,48.45753Z"></path><path d="M58.63632,30.10211a1.818,1.818,0,0,1-.32043-0.63831,0.50655,0.50655,0,0,1,.33823-0.37031,0.56953,0.56953,0,0,1,.414.31933A2.16285,2.16285,0,0,1,58.63632,30.10211Z"></path><path d="M62.5804,54.95326a1.51848,1.51848,0,0,1-.43919.48849,0.96092,0.96092,0,0,1-.4535-0.22126,1.7865,1.7865,0,0,1,.37969-0.41739A1.19625,1.19625,0,0,1,62.5804,54.95326Z"></path><path d="M62.426,53.718c-0.2686.39989-.529,0.527-0.85115,0.24715a0.3304,0.3304,0,0,1-.034-0.322C61.81361,53.347,62.09757,53.40727,62.426,53.718Z"></path><path d="M61.23232,49.38507a2.9702,2.9702,0,0,1-.38387-0.36527,1.90746,1.90746,0,0,1,.43648-0.48809,0.70008,0.70008,0,0,1,.31772.23021A4.13554,4.13554,0,0,1,61.23232,49.38507Z"></path><path d="M65.28576,52.41877l0.33446,0.48594a1.08452,1.08452,0,0,1-.452.2688,0.91841,0.91841,0,0,1-.348-0.34562Z"></path><path d="M67.27235,70.34547a4.24223,4.24223,0,0,1-.31947.62292,1.513,1.513,0,0,1-.39408-0.1443l0.344-.653Z"></path><path d="M64.15637,43.50032a1.442,1.442,0,0,1,.29652.42231,0.91863,0.91863,0,0,1-.41192.35411,0.53647,0.53647,0,0,1-.28572-0.274A2.45393,2.45393,0,0,1,64.15637,43.50032Z"></path><path d="M65.65366,68.36575a4.98084,4.98084,0,0,1-.58864.37471,1.91075,1.91075,0,0,1-.24675-0.32493l0.62183-.38115Z"></path><path d="M60.92956,37.70858c0.021,0.61365-.162.8658-0.73958,0.86986A0.76655,0.76655,0,0,1,60.92956,37.70858Z"></path><path d="M59.972,33.56188c-0.02409.61127-.32662,0.68757-0.82343,0.63588C59.19172,33.62247,59.49806,33.55146,59.972,33.56188Z"></path><path d="M62.4867,66.34738l0.627-.75394C63.24413,66.31365,63.24413,66.31365,62.4867,66.34738Z"></path><path d="M62.94438,25.84529c0.09258,0.44637.0002,0.73037-.46929,0.76066a0.31339,0.31339,0,0,1-.22663-0.20867C62.2381,25.95039,62.47123,25.778,62.94438,25.84529Z"></path><path d="M66.03387,54.64944a1.11708,1.11708,0,0,1-.46091.14788,1.32673,1.32673,0,0,1-.435-0.27839,0.97559,0.97559,0,0,1,.31815-0.31489,0.79491,0.79491,0,0,1,.37992.16115Z"></path><path d="M66.14807,47.8468l-0.498.361a0.923,0.923,0,0,1-.26777-0.41745,0.57712,0.57712,0,0,1,.40481-0.29095A1.12534,1.12534,0,0,1,66.14807,47.8468Z"></path><path d="M62.25875,30.765a1.87559,1.87559,0,0,1-.51114.3772,0.77682,0.77682,0,0,1-.33552-0.23874,1.44129,1.44129,0,0,1,.35935-0.381A1.24709,1.24709,0,0,1,62.25875,30.765Z"></path><path d="M64.83467,39.80846a1.416,1.416,0,0,1,.43047.485,1.11052,1.11052,0,0,1-.31967.43485,0.85175,0.85175,0,0,1-.32976-0.303A1.78816,1.78816,0,0,1,64.83467,39.80846Z"></path><path d="M63.73869,45.77348a1.17186,1.17186,0,0,1-.42314.31034,1.49474,1.49474,0,0,1-.44758-0.27023,0.76638,0.76638,0,0,1,.27244-0.29738A2.08689,2.08689,0,0,1,63.73869,45.77348Z"></path><path d="M63.95668,66.65955l0.30888,0.42987a2.76767,2.76767,0,0,1-.45982.30027,0.45411,0.45411,0,0,1-.2268-0.20149A4.27418,4.27418,0,0,1,63.95668,66.65955Z"></path><path d="M63.17908,48.41877a1.83775,1.83775,0,0,1,.33414.51343,0.82905,0.82905,0,0,1-.29.29464,1.65636,1.65636,0,0,1-.35157-0.40541A1.24251,1.24251,0,0,1,63.17908,48.41877Z"></path><path d="M61.59109,27.28383a1.2468,1.2468,0,0,1-.44005.29784,0.85784,0.85784,0,0,1-.35723-0.233,1.474,1.474,0,0,1,.37877-0.36352A1.22415,1.22415,0,0,1,61.59109,27.28383Z"></path><path d="M62.80466,64.0245a1.28055,1.28055,0,0,1-.45453.30516,0.87646,0.87646,0,0,1-.35185-0.24572,0.97265,0.97265,0,0,1,.32965-0.307A1.201,1.201,0,0,1,62.80466,64.0245Z"></path><path d="M64.996,51.868a1.30731,1.30731,0,0,1-.45384.32,0.7995,0.7995,0,0,1-.33054-0.25988,0.93049,0.93049,0,0,1,.32508-0.30159A1.14041,1.14041,0,0,1,64.996,51.868Z"></path><path d="M63.40405,37.38711a0.73239,0.73239,0,0,1,.18684.34539,0.42741,0.42741,0,0,1-.31978.24966,0.40355,0.40355,0,0,1-.26506-0.28437,1.284,1.284,0,0,1,.10737-0.46262Z"></path><path d="M60.37613,36.65511a1.158,1.158,0,0,1-.37746.37156,0.86215,0.86215,0,0,1-.36527-0.23147,0.87018,0.87018,0,0,1,.26494-0.336A1.13311,1.13311,0,0,1,60.37613,36.65511Z"></path><path d="M63.145,31.67113a1.17021,1.17021,0,0,1,.13666.44143,0.45018,0.45018,0,0,1-.2517.328,0.394,0.394,0,0,1-.32785-0.2139,0.74929,0.74929,0,0,1,.169-0.362Z"></path><path d="M59.79352,32.13985a1.75358,1.75358,0,0,1-.38893.2573,0.58175,0.58175,0,0,1-.2248-0.17952l0.36616-.36212Z"></path><path d="M65.30853,58.626a0.82577,0.82577,0,0,1-.30431-0.195,0.60914,0.60914,0,0,1-.05807-0.40961,0.3942,0.3942,0,0,1,.28542-0.11483,0.794,0.794,0,0,1,.17128.38936,0.92986,0.92986,0,0,1-.11295.34444Z"></path><path d="M64.07149,64.68853l0.23261,0.3683a0.6084,0.6084,0,0,1-.2785.153,1.0317,1.0317,0,0,1-.27976-0.27879Z"></path></g></svg>